<?xml version="1.0" encoding="utf-8"?>
<svg viewBox="0 0 500 500" xmlns="http://www.w3.org/2000/svg">
  <ellipse style="stroke: rgb(0, 0, 0); stroke-width: 0px; fill: rgb(238, 238, 238);" cx="250" cy="250" rx="250" ry="249.998"/>
  <path style="stroke-miterlimit: 1; stroke-linejoin: round; stroke-width: 0px; stroke: rgb(255, 105, 105);" d="M 71.223 148.848 L 219.738 148.569 C 222.609 148.569 226.153 150.979 226.153 153.236 L 226.099 168.593 C 226.099 170.504 221.49 173.545 220.008 173.545 L 160.494 173.482 L 160.456 341.474 C 160.456 343.621 158.087 347.135 155.071 347.135 L 136.847 346.92 C 134.172 346.92 131.38 343.249 131.38 341.69 L 130.953 173.756 L 71.08 173.545 C 68.986 173.545 66.128 170.293 66.128 168.647 L 66.305 153.094 C 66.305 151.73 69.391 148.848 71.223 148.848 Z"/>
  <path style="stroke: rgb(0, 0, 0); stroke-width: 0px;" d="M 295.729 185.794 L 335.684 185.65 C 373.648 185.65 371.466 244.426 338.008 244.426 L 295.867 244.254 Z M 252.201 157.891 L 252.307 338.396 C 252.307 344.047 255.31 347.242 261.536 347.242 L 288.373 347.242 C 293.898 347.242 296.661 343.886 296.661 336.863 L 296.846 277.016 L 323.501 276.777 C 325.625 328.003 362.71 366.506 422.71 341.653 C 428.646 339.194 428.361 333.095 428.361 330.537 C 428.361 328.732 421.032 313.248 418.124 312.043 C 417.072 311.607 412.13 310.26 407.405 312.217 C 380.882 323.203 366.359 297.53 364.538 273.442 C 425.631 263.406 430.643 150.016 346.047 148.349 L 261.143 148.619 C 256.141 148.619 252.201 154.808 252.201 157.891 Z"/>
</svg>